<?xml version="1.0" encoding="utf-8"?>
<!-- Generator: Adobe Illustrator 25.2.0, SVG Export Plug-In . SVG Version: 6.00 Build 0)  -->
<svg version="1.1" id="Capa_1" xmlns="http://www.w3.org/2000/svg" xmlns:xlink="http://www.w3.org/1999/xlink" x="0px" y="0px"
	 viewBox="0 0 532.55 522.85" style="enable-background:new 0 0 532.55 522.85;" xml:space="preserve">
<g>
	<path d="M224.81,192.05c8.67-13.34,16.52-27.15,22.29-40.45c1.55-3.58,1.68-7.63,0.09-11.19c-3.51-7.87-12.11-21.23-31.41-27.16
		c-3.66-1.13-7.63-0.66-10.94,1.27c-7.46,4.34-22.66,13.52-40.28,25.99c-17.62-12.47-32.82-21.65-40.28-25.99
		c-3.31-1.93-7.28-2.4-10.94-1.27c-19.3,5.93-27.9,19.29-31.41,27.16c-1.59,3.56-1.46,7.62,0.09,11.19
		c5.77,13.3,13.62,27.11,22.29,40.45c-6.34,6.9-12.16,14.04-17.16,21.33c-4.47,6.51-6.76,14.32-6.29,22.2
		c0.49,8.25,3.81,18.91,14.9,30.1c0.44,0.45,0.88,0.88,1.33,1.3c18.84,17.99,48.48,17.7,67.48,0.25c19,17.45,48.64,17.74,67.48-0.25
		c0.44-0.42,0.89-0.86,1.33-1.3c11.09-11.18,14.4-21.85,14.9-30.1c0.47-7.88-1.83-15.69-6.29-22.2
		C236.97,206.09,231.15,198.96,224.81,192.05z"/>
	<path d="M393.03,318.09c-41.22-4.27-83.6-6.5-126.84-6.5s-85.62,2.23-126.84,6.5c-8.55,0.89-14.05,8.25-11.22,15.17
		c19.91,48.58,74.2,83.43,138.05,83.43c63.86,0,118.14-34.85,138.05-83.43C407.08,326.34,401.58,318.98,393.03,318.09z
		 M200.71,345.66l-4.08,7.06l-4.08,7.06c-1.91,3.3-6.68,3.3-8.59,0l-4.08-7.06l-4.08-7.06c-1.91-3.3,0.48-7.44,4.29-7.44h8.15h8.15
		C200.24,338.23,202.62,342.36,200.71,345.66z"/>
	<path d="M442.35,233.29c6-11.57,9.41-24.68,9.41-38.55v-4.26c0-46.38-37.95-84.33-84.33-84.33h-2.56h0h-0.09
		c-0.29,0-0.57,0.02-0.86,0.02c-45.99,0.47-83.47,38.21-83.47,84.31v4.26c0,46.14,37.55,83.91,83.6,84.31
		c0.25,0,0.49,0.02,0.73,0.02h0.08c0,0,0.01,0,0.01,0h0c0.01,0,0.01,0,0.02,0h2.54c7.76,0,15.27-1.08,22.42-3.07
		c5.27,0.05,9.7,4.26,9.06,9.34c-0.32,2.53-0.72,5.16-1.21,7.88c-4.18,23.21,25.76,25.99,20.58-1.56
		c-1.85-9.86-3.03-15.82-2.64-19.39c0.74-6.89,9.35-6.26,9.06-0.19c0.94,21.5,16.36,17.89,15.1-1.5c-0.55-8.4-2.51-14-2.29-19.2
		C437.92,241.52,442.35,233.29,442.35,233.29"/>
</g>
</svg>
